<svg width="577" height="143" viewBox="0 0 577 143" fill="none" xmlns="http://www.w3.org/2000/svg">
<path d="M187.192 64.256C187.192 56.192 188.824 49.136 192.088 43.088C195.352 36.944 199.816 32.192 205.48 28.832C211.24 25.472 217.624 23.792 224.632 23.792C231.544 23.792 237.544 25.28 242.632 28.256C247.72 31.232 251.512 34.976 254.008 39.488V25.088H267.256V104H254.008V89.312C251.416 93.92 247.528 97.76 242.344 100.832C237.256 103.808 231.304 105.296 224.488 105.296C217.48 105.296 211.144 103.568 205.48 100.112C199.816 96.656 195.352 91.808 192.088 85.568C188.824 79.328 187.192 72.224 187.192 64.256ZM254.008 64.4C254.008 58.448 252.808 53.264 250.408 48.848C248.008 44.432 244.744 41.072 240.616 38.768C236.584 36.368 232.12 35.168 227.224 35.168C222.328 35.168 217.864 36.32 213.832 38.624C209.8 40.928 206.584 44.288 204.184 48.704C201.784 53.12 200.584 58.304 200.584 64.256C200.584 70.304 201.784 75.584 204.184 80.096C206.584 84.512 209.8 87.92 213.832 90.32C217.864 92.624 222.328 93.776 227.224 93.776C232.12 93.776 236.584 92.624 240.616 90.32C244.744 87.92 248.008 84.512 250.408 80.096C252.808 75.584 254.008 70.352 254.008 64.4ZM299.625 37.904C301.929 33.392 305.193 29.888 309.417 27.392C313.737 24.896 318.969 23.648 325.113 23.648V37.184H321.657C306.969 37.184 299.625 45.152 299.625 61.088V104H286.521V25.088H299.625V37.904ZM332.463 64.256C332.463 56.192 334.095 49.136 337.359 43.088C340.623 36.944 345.087 32.192 350.751 28.832C356.511 25.472 362.895 23.792 369.903 23.792C376.815 23.792 382.815 25.28 387.903 28.256C392.991 31.232 396.783 34.976 399.279 39.488V25.088H412.527V104H399.279V89.312C396.687 93.92 392.799 97.76 387.615 100.832C382.527 103.808 376.575 105.296 369.759 105.296C362.751 105.296 356.415 103.568 350.751 100.112C345.087 96.656 340.623 91.808 337.359 85.568C334.095 79.328 332.463 72.224 332.463 64.256ZM399.279 64.4C399.279 58.448 398.079 53.264 395.679 48.848C393.279 44.432 390.015 41.072 385.887 38.768C381.855 36.368 377.391 35.168 372.495 35.168C367.599 35.168 363.135 36.32 359.103 38.624C355.071 40.928 351.855 44.288 349.455 48.704C347.055 53.12 345.855 58.304 345.855 64.256C345.855 70.304 347.055 75.584 349.455 80.096C351.855 84.512 355.071 87.92 359.103 90.32C363.135 92.624 367.599 93.776 372.495 93.776C377.391 93.776 381.855 92.624 385.887 90.32C390.015 87.92 393.279 84.512 395.679 80.096C398.079 75.584 399.279 70.352 399.279 64.4Z" fill="black"/>
<path d="M468.12 2.912V63.392C468.12 69.44 469.608 74.096 472.584 77.36C475.56 80.624 479.928 82.256 485.688 82.256C491.448 82.256 495.864 80.624 498.936 77.36C502.008 74.096 503.544 69.44 503.544 63.392V2.912H528.168V63.248C528.168 72.272 526.248 79.904 522.408 86.144C518.568 92.384 513.384 97.088 506.856 100.256C500.424 103.424 493.224 105.008 485.256 105.008C477.288 105.008 470.136 103.472 463.8 100.4C457.56 97.232 452.616 92.528 448.968 86.288C445.32 79.952 443.496 72.272 443.496 63.248V2.912H468.12ZM567.203 2.912V104H542.579V2.912H567.203Z" fill="black"/>
<path d="M194.04 23.216L142.776 142.448H112.104L131.4 100.544L98.28 23.216H129.672L146.664 69.008L163.08 23.216H194.04Z" fill="#A6A6A6"/>
<path d="M188.04 23.216L136.776 142.448H106.104L125.4 100.544L92.28 23.216H123.672L140.664 69.008L157.08 23.216H188.04Z" fill="#787878"/>
<path d="M46.368 105.008C34.56 105.008 24.864 102.224 17.28 96.656C9.696 90.992 5.616 82.928 5.04 72.464H35.136C35.424 76.016 36.48 78.608 38.304 80.24C40.128 81.872 42.48 82.688 45.36 82.688C47.952 82.688 50.064 82.064 51.696 80.816C53.424 79.472 54.288 77.648 54.288 75.344C54.288 72.368 52.896 70.064 50.112 68.432C47.328 66.8 42.816 64.976 36.576 62.96C29.952 60.752 24.576 58.64 20.448 56.624C16.416 54.512 12.864 51.488 9.792 47.552C6.816 43.52 5.328 38.288 5.328 31.856C5.328 25.328 6.96 19.76 10.224 15.152C13.488 10.448 18 6.896 23.76 4.49599C29.52 2.096 36.048 0.895997 43.344 0.895997C55.152 0.895997 64.56 3.68 71.568 9.24799C78.672 14.72 82.464 22.448 82.944 32.432H52.272C52.176 29.36 51.216 27.056 49.392 25.52C47.664 23.984 45.408 23.216 42.624 23.216C40.512 23.216 38.784 23.84 37.44 25.088C36.096 26.336 35.424 28.112 35.424 30.416C35.424 32.336 36.144 34.016 37.584 35.456C39.12 36.8 40.992 38 43.2 39.056C45.408 40.016 48.672 41.264 52.992 42.8C59.424 45.008 64.704 47.216 68.832 49.424C73.056 51.536 76.656 54.56 79.632 58.496C82.704 62.336 84.24 67.232 84.24 73.184C84.24 79.232 82.704 84.656 79.632 89.456C76.656 94.256 72.288 98.048 66.528 100.832C60.864 103.616 54.144 105.008 46.368 105.008ZM181.457 23.216L130.193 142.448H99.5209L118.817 100.544L85.6969 23.216H117.089L134.081 69.008L150.497 23.216H181.457Z" fill="black"/>
</svg>
