<svg width="230" height="200" viewBox="0 0 230 200" fill="none" xmlns="http://www.w3.org/2000/svg">
<path fill-rule="evenodd" clip-rule="evenodd" d="M115 150C142.614 150 165 127.614 165 100C165 72.3858 142.614 50 115 50C87.3858 50 65 72.3858 65 100C65 127.614 87.3858 150 115 150ZM115 137C135.435 137 152 120.435 152 100C152 79.5655 135.435 63 115 63C94.5655 63 78 79.5655 78 100C78 120.435 94.5655 137 115 137Z" fill="black"/>
<path d="M114.786 179.593C127.259 179.593 139.065 176.738 149.587 171.647L136.368 164.015C129.596 166.335 122.337 167.593 114.786 167.593C107.235 167.593 99.9762 166.335 93.2043 164.015L79.9846 171.647C90.5066 176.738 102.313 179.593 114.786 179.593Z" fill="black"/>
<path d="M69.7859 165.746V150.103C59.4377 140.646 52.0373 127.974 49.1383 113.653L35 105.49C36.825 130.538 50.1822 152.385 69.7859 165.746Z" fill="black"/>
<path d="M180.434 113.653C177.535 127.974 170.134 140.646 159.786 150.103V165.746C179.39 152.385 192.747 130.538 194.572 105.49L180.434 113.653Z" fill="black"/>
<path d="M194.572 93.6958L180.193 85.3941C177.139 71.5399 169.859 59.2884 159.786 50.0831V33.4397C179.39 46.8008 192.747 68.6481 194.572 93.6958Z" fill="black"/>
<path d="M94.303 35.8055C100.759 33.7193 107.642 32.5929 114.786 32.5929C121.93 32.5929 128.813 33.7193 135.269 35.8055L149.587 27.5388C139.065 22.4474 127.259 19.5929 114.786 19.5929C102.313 19.5929 90.5066 22.4474 79.9846 27.5388L94.303 35.8055Z" fill="black"/>
<path d="M69.7859 33.4397V50.0831C59.7129 59.2884 52.433 71.5399 49.3791 85.394L35 93.6958C36.825 68.6481 50.1822 46.8008 69.7859 33.4397Z" fill="black"/>
<path d="M0 99.5929L20.748 111.572C20.2543 107.648 20 103.65 20 99.5929C20 95.5355 20.2543 91.5375 20.748 87.6141L0 99.5929Z" fill="black"/>
<path d="M57.5 23.9641C63.834 19.1409 70.7922 15.0954 78.2322 11.9697L57.5 0V23.9641Z" fill="black"/>
<path d="M151.768 11.9697C159.208 15.0954 166.166 19.1409 172.5 23.9641V0L151.768 11.9697Z" fill="black"/>
<path d="M57.5 175.222V199.186L78.2322 187.216C70.7922 184.09 63.834 180.045 57.5 175.222Z" fill="black"/>
<path d="M151.768 187.216L172.5 199.186V175.222C166.166 180.045 159.208 184.09 151.768 187.216Z" fill="black"/>
<path d="M210 99.5929C210 103.65 209.746 107.648 209.252 111.572L230 99.5929L209.252 87.6141C209.746 91.5375 210 95.5355 210 99.5929Z" fill="black"/>
</svg>
