<svg width="124" height="32" viewBox="0 0 124 32" fill="none" xmlns="http://www.w3.org/2000/svg">
<path d="M24.0318 27.5758C22.3414 28.3937 20.4447 28.8523 18.4408 28.8523C11.6613 28.8523 6.10783 23.6032 5.62289 16.9474L7.89426 18.2588C8.89526 23.2038 13.2368 26.9245 18.4408 26.9245C19.6539 26.9245 20.8201 26.7223 21.908 26.3496L24.0318 27.5758Z" fill="black"/>
<path d="M25.6703 26.6278C29.0645 24.3144 31.2931 20.4175 31.2931 16C31.2931 11.5825 29.0645 7.6856 25.6703 5.37222V8.04605C27.8412 10.03 29.2046 12.8948 29.2046 16.0803C29.2046 19.2659 27.8412 22.1306 25.6703 24.1146V26.6278Z" fill="black"/>
<path d="M7.93295 13.7189C9.00283 8.86538 13.3011 5.23618 18.4408 5.23618C19.5885 5.23618 20.6943 5.41715 21.7315 5.7523L24.0318 4.42422C22.3414 3.60627 20.4447 3.14768 18.4408 3.14768C11.6613 3.14768 6.10783 8.39684 5.62289 15.0526L7.93295 13.7189Z" fill="black"/>
<path d="M27.2645 16.4709C27.0197 21.1319 23.1628 24.836 18.4408 24.836C16.9988 24.836 15.6375 24.4905 14.4351 23.8779L15.8711 23.0488C16.6716 23.3474 17.5373 23.5106 18.4408 23.5106C22.0868 23.5106 25.1169 20.8542 25.7284 17.3577L27.2645 16.4709Z" fill="black"/>
<path d="M27.2645 15.5291C27.0197 10.868 23.1628 7.16403 18.4408 7.16403C16.9988 7.16403 15.6375 7.50945 14.4351 8.12205L15.9886 9.01896C16.756 8.7475 17.5813 8.59987 18.4408 8.59987C22.0437 8.59987 25.0452 11.1938 25.7057 14.6291L27.2645 15.5291Z" fill="black"/>
<path d="M13.6212 10.3977V8.59299C11.2032 10.1696 9.60485 12.8981 9.60485 16C9.60485 19.1019 11.2032 21.8304 13.6212 23.407V21.7127C12.0414 20.3455 11.0407 18.3181 11.0407 16.0552C11.0407 13.7924 12.0414 11.765 13.6212 10.3977Z" fill="black"/>
<path d="M13.6212 16.4772C13.8608 18.915 15.9167 20.8196 18.4175 20.8196C19.1254 20.8196 19.7977 20.667 20.4032 20.3928L19.589 19.9228C19.2182 20.0359 18.8249 20.0967 18.4175 20.0967C16.5128 20.0967 14.9163 18.7676 14.4917 16.9798L13.6212 16.4772Z" fill="black"/>
<path d="M19.52 12.1171C19.1695 12.0171 18.7997 11.9636 18.4175 11.9636C16.5379 11.9636 14.9583 13.2579 14.5091 15.0101L13.6212 15.5228C13.8608 13.085 15.9167 11.1804 18.4175 11.1804C19.1254 11.1804 19.7977 11.333 20.4032 11.6072L19.52 12.1171Z" fill="black"/>
<path d="M21.2289 18.948C21.9845 18.209 22.4539 17.1748 22.4539 16.0301C22.4539 14.8854 21.9845 13.8512 21.2289 13.1122V12.0849C22.4451 12.9598 23.2371 14.3874 23.2371 16C23.2371 17.6126 22.4451 19.0402 21.2289 19.9151V18.948Z" fill="black"/>
<path d="M0 16L3.33325 17.9245C3.25394 17.2941 3.21308 16.6518 3.21308 16C3.21308 15.3482 3.25394 14.7059 3.33325 14.0756L0 16Z" fill="black"/>
<path d="M9.23761 3.84993C10.2552 3.07507 11.3731 2.42513 12.5683 1.92298L9.23761 0V3.84993Z" fill="black"/>
<path d="M24.3821 1.92298C25.5774 2.42513 26.6952 3.07507 27.7128 3.84993V0L24.3821 1.92298Z" fill="black"/>
<path d="M9.23761 28.1501V32L12.5683 30.077C11.3731 29.5749 10.2552 28.9249 9.23761 28.1501Z" fill="black"/>
<path d="M24.3821 30.077L27.7128 32V28.1501C26.6952 28.9249 25.5774 29.5749 24.3821 30.077Z" fill="black"/>
<path d="M33.7374 16C33.7374 16.6518 33.6965 17.2941 33.6172 17.9245L36.9504 16L33.6172 14.0756C33.6965 14.7059 33.7374 15.3482 33.7374 16Z" fill="black"/>
<path d="M48.2704 23.14C47.2438 23.14 46.3238 22.9733 45.5104 22.64C44.6971 22.3067 44.0438 21.8133 43.5504 21.16C43.0704 20.5067 42.8171 19.72 42.7904 18.8H46.4304C46.4838 19.32 46.6638 19.72 46.9704 20C47.2771 20.2667 47.6771 20.4 48.1704 20.4C48.6771 20.4 49.0771 20.2867 49.3704 20.06C49.6638 19.82 49.8104 19.4933 49.8104 19.08C49.8104 18.7333 49.6904 18.4467 49.4504 18.22C49.2238 17.9933 48.9371 17.8067 48.5904 17.66C48.2571 17.5133 47.7771 17.3467 47.1504 17.16C46.2438 16.88 45.5038 16.6 44.9304 16.32C44.3571 16.04 43.8638 15.6267 43.4504 15.08C43.0371 14.5333 42.8304 13.82 42.8304 12.94C42.8304 11.6333 43.3038 10.6133 44.2504 9.88C45.1971 9.13333 46.4304 8.76 47.9504 8.76C49.4971 8.76 50.7438 9.13333 51.6904 9.88C52.6371 10.6133 53.1438 11.64 53.2104 12.96H49.5104C49.4838 12.5067 49.3171 12.1533 49.0104 11.9C48.7038 11.6333 48.3104 11.5 47.8304 11.5C47.4171 11.5 47.0838 11.6133 46.8304 11.84C46.5771 12.0533 46.4504 12.3667 46.4504 12.78C46.4504 13.2333 46.6638 13.5867 47.0904 13.84C47.5171 14.0933 48.1838 14.3667 49.0904 14.66C49.9971 14.9667 50.7304 15.26 51.2904 15.54C51.8638 15.82 52.3571 16.2267 52.7704 16.76C53.1838 17.2933 53.3904 17.98 53.3904 18.82C53.3904 19.62 53.1838 20.3467 52.7704 21C52.3704 21.6533 51.7838 22.1733 51.0104 22.56C50.2371 22.9467 49.3238 23.14 48.2704 23.14Z" fill="black"/>
<path d="M66.8951 11.84L59.8951 28.3H56.2151L58.7751 22.62L54.2351 11.84H58.0551L60.6351 18.82L63.1951 11.84H66.8951Z" fill="black"/>
<path d="M67.4518 17.4C67.4518 16.2533 67.6652 15.2467 68.0918 14.38C68.5318 13.5133 69.1252 12.8467 69.8718 12.38C70.6185 11.9133 71.4518 11.68 72.3718 11.68C73.1585 11.68 73.8452 11.84 74.4318 12.16C75.0318 12.48 75.4918 12.9 75.8118 13.42V11.84H79.2318V23H75.8118V21.42C75.4785 21.94 75.0118 22.36 74.4118 22.68C73.8252 23 73.1385 23.16 72.3518 23.16C71.4452 23.16 70.6185 22.9267 69.8718 22.46C69.1252 21.98 68.5318 21.3067 68.0918 20.44C67.6652 19.56 67.4518 18.5467 67.4518 17.4ZM75.8118 17.42C75.8118 16.5667 75.5718 15.8933 75.0918 15.4C74.6252 14.9067 74.0518 14.66 73.3718 14.66C72.6918 14.66 72.1118 14.9067 71.6318 15.4C71.1652 15.88 70.9318 16.5467 70.9318 17.4C70.9318 18.2533 71.1652 18.9333 71.6318 19.44C72.1118 19.9333 72.6918 20.18 73.3718 20.18C74.0518 20.18 74.6252 19.9333 75.0918 19.44C75.5718 18.9467 75.8118 18.2733 75.8118 17.42Z" fill="black"/>
<path d="M85.1261 13.7C85.5261 13.0867 86.0261 12.6067 86.6261 12.26C87.2261 11.9 87.8927 11.72 88.6261 11.72V15.34H87.6861C86.8327 15.34 86.1927 15.5267 85.7661 15.9C85.3394 16.26 85.1261 16.9 85.1261 17.82V23H81.7061V11.84H85.1261V13.7Z" fill="black"/>
<path d="M89.5807 17.4C89.5807 16.2533 89.7941 15.2467 90.2207 14.38C90.6607 13.5133 91.2541 12.8467 92.0008 12.38C92.7474 11.9133 93.5808 11.68 94.5008 11.68C95.2874 11.68 95.9741 11.84 96.5608 12.16C97.1608 12.48 97.6208 12.9 97.9408 13.42V11.84H101.361V23H97.9408V21.42C97.6074 21.94 97.1407 22.36 96.5407 22.68C95.9541 23 95.2674 23.16 94.4808 23.16C93.5741 23.16 92.7474 22.9267 92.0008 22.46C91.2541 21.98 90.6607 21.3067 90.2207 20.44C89.7941 19.56 89.5807 18.5467 89.5807 17.4ZM97.9408 17.42C97.9408 16.5667 97.7007 15.8933 97.2207 15.4C96.7541 14.9067 96.1808 14.66 95.5008 14.66C94.8208 14.66 94.2407 14.9067 93.7607 15.4C93.2941 15.88 93.0608 16.5467 93.0608 17.4C93.0608 18.2533 93.2941 18.9333 93.7607 19.44C94.2407 19.9333 94.8208 20.18 95.5008 20.18C96.1808 20.18 96.7541 19.9333 97.2207 19.44C97.7007 18.9467 97.9408 18.2733 97.9408 17.42Z" fill="black"/>
<path d="M111.6 8.96V17.36C111.6 18.2 111.807 18.8467 112.22 19.3C112.633 19.7533 113.24 19.98 114.04 19.98C114.84 19.98 115.453 19.7533 115.88 19.3C116.307 18.8467 116.52 18.2 116.52 17.36V8.96H119.94V17.34C119.94 18.5933 119.673 19.6533 119.14 20.52C118.607 21.3867 117.887 22.04 116.98 22.48C116.087 22.92 115.087 23.14 113.98 23.14C112.873 23.14 111.88 22.9267 111 22.5C110.133 22.06 109.447 21.4067 108.94 20.54C108.433 19.66 108.18 18.5933 108.18 17.34V8.96H111.6Z" fill="black"/>
<path d="M123.762 8.96V23H120.342V8.96H123.762Z" fill="black"/>
<path d="M107 16C107 17.1046 106.105 18 105 18C103.895 18 103 17.1046 103 16C103 14.8954 103.895 14 105 14C106.105 14 107 14.8954 107 16Z" fill="black"/>
</svg>
